<?xml version="1.0" standalone="no"?><!DOCTYPE svg PUBLIC "-//W3C//DTD SVG 1.1//EN" "http://www.w3.org/Graphics/SVG/1.1/DTD/svg11.dtd"><svg t="1541331912867" class="icon" style="" viewBox="0 0 1025 1024" version="1.1" xmlns="http://www.w3.org/2000/svg" p-id="5274" xmlns:xlink="http://www.w3.org/1999/xlink" width="200.1953125" height="200"><defs><style type="text/css"></style></defs><path d="M511.997 583.709l88.006-143.415h-176.006z" p-id="5275" fill="#8a8a8a"></path><path d="M805.556 387.984c-16.047-37.94-39.018-72.011-68.273-101.267-29.257-29.256-63.327-52.226-101.267-68.272-39.287-16.616-81.011-25.043-124.016-25.043-43.005 0-84.73 8.425-124.016 25.043-37.94 16.047-72.011 39.018-101.267 68.273-29.256 29.256-52.226 63.327-68.273 101.267-16.616 39.286-25.043 81.011-25.043 124.016s8.425 84.73 25.043 124.016c16.047 37.94 39.017 72.011 68.273 101.267s63.327 52.226 101.267 68.273c39.286 16.616 81.011 25.043 124.016 25.043s84.729-8.425 124.016-25.043c37.94-16.047 72.011-39.018 101.267-68.273 29.256-29.256 52.226-63.327 68.273-101.267 16.616-39.286 25.043-81.011 25.043-124.016 0-43.005-8.425-84.73-25.043-124.016zM616.453 451.374l-88.005 143.415c-3.599 5.863-9.794 9.409-16.452 9.409-6.651 0-12.85-3.545-16.452-9.409l-88-143.415c-2.063-3.366-3.107-7.217-3.107-11.079 0-3.37 0.796-6.753 2.393-9.817 3.428-6.578 10.010-10.672 17.165-10.672h176.007c7.154 0 13.738 4.093 17.163 10.672 1.599 3.065 2.392 6.442 2.391 9.817 0 3.86-1.039 7.714-3.104 11.079z" p-id="5276" fill="#8a8a8a"></path></svg>