<?xml version="1.0" standalone="no"?><!DOCTYPE svg PUBLIC "-//W3C//DTD SVG 1.1//EN" "http://www.w3.org/Graphics/SVG/1.1/DTD/svg11.dtd"><svg t="1541331839218" class="icon" style="" viewBox="0 0 1024 1024" version="1.1" xmlns="http://www.w3.org/2000/svg" p-id="2984" xmlns:xlink="http://www.w3.org/1999/xlink" width="200" height="200"><defs><style type="text/css"></style></defs><path d="M221.002928 273.615705 221.002928 273.615705l290.523793 286.748816 290.511513-286.748816c8.872065-8.847505 19.019169-15.504112 30.411637-19.917632 11.365862-4.439102 22.934339-6.65456 34.648125-6.65456 11.688203 0 23.110347 2.215458 34.174334 6.65456 11.06808 4.41352 21.040199 11.069103 29.891797 19.917632 18.36937 17.749246 27.545356 38.934754 27.545356 63.642482 0 24.653493-9.175987 45.868677-27.545356 63.58927l-349.389482 346.552877c-8.847505 8.872065-19.444864 15.830547-31.812543 20.888749-12.340049 5.058203-24.829502 7.924483-37.490869 8.525164-12.649088 0.649799-24.837688-0.923022-36.542264-4.736884-11.718903-3.78828-21.366633-10.122545-28.968775-18.99461L91.876012 400.847457c-17.724687-17.695011-26.586518-38.935778-26.586518-63.58927 0-24.702612 8.861832-45.89426 26.586518-63.642482 8.861832-8.847505 18.980283-15.47853 30.370705-19.917632 11.396561-4.439102 22.949688-6.65456 34.663474-6.65456 11.704576 0 23.11137 2.215458 34.175357 6.65456C202.170001 258.111592 212.140073 264.768199 221.002928 273.615705L221.002928 273.615705 221.002928 273.615705zM221.002928 273.615705" p-id="2985" fill="#8a8a8a"></path></svg>